<svg xmlns="http://www.w3.org/2000/svg" viewBox="0 0 1579.94 512.93"><defs><style>.cls-1{fill:#fff;}.cls-2{fill:#4285f5;}.cls-3{fill:#00ae45;}.cls-4{fill:#eb4132;}.cls-5{fill:#fff200;opacity:0.54;}.cls-6{fill:#fb0;}</style></defs><title>googleAsset 1</title><g id="Layer_2" data-name="Layer 2"><g id="Layer_1-2" data-name="Layer 1"><rect width="1579.94" height="512.93" rx="62.15"/><path class="cls-1" d="M510.7,110a21.62,21.62,0,0,0-8.83-9.24A26.6,26.6,0,0,0,488.8,97.6a28.61,28.61,0,0,0-14.48,3.65,25.61,25.61,0,0,0-9.95,10.36,32.47,32.47,0,0,0-3.59,15.54,32.82,32.82,0,0,0,3.59,15.6,25.46,25.46,0,0,0,9.95,10.42,28.51,28.51,0,0,0,14.48,3.65q10.95,0,17.78-6.12t8.36-16.6H484.21V123.38H529.3v10.48A40.41,40.41,0,0,1,488.8,169a42.3,42.3,0,0,1-21.07-5.36A39.9,39.9,0,0,1,452.6,148.7,41.78,41.78,0,0,1,447,127.15a41.75,41.75,0,0,1,5.59-21.54,39.81,39.81,0,0,1,15.19-14.9,44.7,44.7,0,0,1,44.27,1.06A36.57,36.57,0,0,1,526.83,110Z"/><path class="cls-1" d="M555.91,97.25v24h28.26v11H555.91v25.08H587.7v11H542.49V86.3H587.7v11Z"/><path class="cls-1" d="M657.05,86.41v11H635.26v70.88H621.84V97.36h-21.9v-11Z"/><path class="cls-1" d="M714.62,86.41v81.83H701.2V86.41Z"/><path class="cls-1" d="M785.14,86.41v11H763.36v70.88H749.94V97.36H728v-11Z"/><path class="cls-1" d="M845.6,163.71a39.72,39.72,0,0,1-15.19-15,42.11,42.11,0,0,1-5.59-21.61,41.75,41.75,0,0,1,5.59-21.54,39.81,39.81,0,0,1,15.19-14.9,44.18,44.18,0,0,1,42.15,0,39.44,39.44,0,0,1,15.13,14.9,44.85,44.85,0,0,1,0,43.15,39.36,39.36,0,0,1-15.13,15,44.11,44.11,0,0,1-42.15,0Zm35.49-10A25.66,25.66,0,0,0,891,143.11a34,34,0,0,0,3.59-16A33.58,33.58,0,0,0,891,111.26a25.37,25.37,0,0,0-9.95-10.48,30.55,30.55,0,0,0-29,0,25.43,25.43,0,0,0-10,10.48,33.7,33.7,0,0,0-3.59,15.89,34.1,34.1,0,0,0,3.59,16,25.72,25.72,0,0,0,10,10.59,30.11,30.11,0,0,0,29,0Z"/><path class="cls-1" d="M988.82,168.24H975.4L935,107.14v61.1H921.6V86.3H935l40.38,61v-61h13.42Z"/><path class="cls-1" d="M539.18,294.9a28.53,28.53,0,0,0-11.51-11.68,35,35,0,0,0-17.08-4,37.4,37.4,0,0,0-19.18,4.88,33.73,33.73,0,0,0-13.08,14,44.73,44.73,0,0,0-4.7,20.92q0,12.21,4.79,21.27a33.88,33.88,0,0,0,13.34,13.95,39.39,39.39,0,0,0,19.87,4.88q13.95,0,22.84-7.41T546.15,331H504.31V312.33h65.91V333.6a57.13,57.13,0,0,1-10.47,23.54,59,59,0,0,1-20.66,17.35A60.71,60.71,0,0,1,510.76,381a64.15,64.15,0,0,1-31.82-7.93A57.74,57.74,0,0,1,456.63,351q-8.11-14.13-8.11-32.08t8.11-32.17a57.54,57.54,0,0,1,22.31-22.14,63.8,63.8,0,0,1,31.65-7.93q20.57,0,35.74,10a51.2,51.2,0,0,1,20.92,28.16Z"/><path class="cls-1" d="M606.13,375.36a44.46,44.46,0,0,1-17.52-17.52q-6.37-11.34-6.37-26.15t6.54-26.16A45.53,45.53,0,0,1,606.65,288a54.72,54.72,0,0,1,50.56,0,45.4,45.4,0,0,1,17.87,17.52q6.54,11.34,6.54,26.16t-6.71,26.15a46.45,46.45,0,0,1-18.13,17.52,52.71,52.71,0,0,1-25.54,6.19A50.85,50.85,0,0,1,606.13,375.36Zm37.57-18.31a23.43,23.43,0,0,0,9.33-9.67,32.66,32.66,0,0,0,3.49-15.69q0-13.77-7.24-21.19a23.78,23.78,0,0,0-17.7-7.41,23.23,23.23,0,0,0-17.52,7.41Q607,317.92,607,331.69t6.89,21.18a22.67,22.67,0,0,0,17.35,7.41A25.28,25.28,0,0,0,643.7,357.05Z"/><path class="cls-1" d="M717.36,375.36a44.46,44.46,0,0,1-17.52-17.52q-6.36-11.34-6.36-26.15T700,305.53A45.53,45.53,0,0,1,717.88,288a54.74,54.74,0,0,1,50.57,0,45.53,45.53,0,0,1,17.87,17.52q6.54,11.34,6.54,26.16t-6.72,26.15A46.38,46.38,0,0,1,768,375.36a52.68,52.68,0,0,1-25.54,6.19A50.85,50.85,0,0,1,717.36,375.36Zm37.57-18.31a23.31,23.31,0,0,0,9.33-9.67q3.5-6.45,3.49-15.69,0-13.77-7.24-21.19a23.77,23.77,0,0,0-17.69-7.41,23.24,23.24,0,0,0-17.53,7.41q-7,7.42-7.06,21.19t6.89,21.18a22.67,22.67,0,0,0,17.35,7.41A25.28,25.28,0,0,0,754.93,357.05Z"/><path class="cls-1" d="M867.65,286.09a35,35,0,0,1,12.9,11.08V283.39h24.58v97.29a51.84,51.84,0,0,1-5.4,24,40.2,40.2,0,0,1-16.22,16.74q-10.8,6.18-26.15,6.19-20.57,0-33.73-9.59t-14.91-26.15H833a18.1,18.1,0,0,0,8.28,10.55,28.93,28.93,0,0,0,15.43,3.92q10.64,0,17.27-6.37t6.62-19.26v-15a37,37,0,0,1-13,11.34,38.78,38.78,0,0,1-18.92,4.53,41.43,41.43,0,0,1-22.31-6.28,43.75,43.75,0,0,1-16-17.69q-5.83-11.41-5.84-26.24a56,56,0,0,1,5.84-26,42.91,42.91,0,0,1,15.87-17.43,42.21,42.21,0,0,1,22.4-6.11A40.67,40.67,0,0,1,867.65,286.09Zm9.41,30.34a24.52,24.52,0,0,0-9.41-9.76,25.14,25.14,0,0,0-12.73-3.4,24.68,24.68,0,0,0-12.55,3.31,24.94,24.94,0,0,0-9.33,9.68,30.33,30.33,0,0,0-3.57,15.08A31.3,31.3,0,0,0,833,346.59a25.7,25.7,0,0,0,9.41,10,23.89,23.89,0,0,0,12.47,3.49,25.24,25.24,0,0,0,12.73-3.4,24.55,24.55,0,0,0,9.41-9.77,35.09,35.09,0,0,0,0-30.51Z"/><path class="cls-1" d="M953.43,251V380H929V251Z"/><path class="cls-1" d="M1066.58,339H996q.87,10.46,7.32,16.39a22.59,22.59,0,0,0,15.87,5.93q13.59,0,19.35-11.69h26.33a44,44,0,0,1-16,22.93q-11.86,9-29.12,9a50.34,50.34,0,0,1-25-6.19,43.45,43.45,0,0,1-17.26-17.52q-6.2-11.34-6.19-26.15,0-15,6.1-26.33a42.64,42.64,0,0,1,17.09-17.43q11-6.1,25.28-6.11a50.82,50.82,0,0,1,24.67,5.93,41.71,41.71,0,0,1,16.91,16.83,50.88,50.88,0,0,1,6,25A58.18,58.18,0,0,1,1066.58,339ZM1042,322.62q-.18-9.42-6.8-15.08a24.11,24.11,0,0,0-16.22-5.67,22.1,22.1,0,0,0-15.25,5.5q-6.19,5.49-7.59,15.25Z"/><path class="cls-1" d="M1210.68,314.25q-4.62,8.55-14.47,13.78t-24.85,5.23H1151V380h-24.41V258.29h44.81q14.12,0,24.06,4.88a34,34,0,0,1,14.91,13.42,39.38,39.38,0,0,1,.35,37.66Zm-25.37-5.32c3.25-3.07,4.88-7.41,4.88-13q0-17.79-19.88-17.79H1151v35.39h19.35Q1180.42,313.55,1185.31,308.93Z"/><path class="cls-1" d="M1257,251V380h-24.4V251Z"/><path class="cls-1" d="M1280.59,305.36a42.82,42.82,0,0,1,15.86-17.43,42.25,42.25,0,0,1,22.41-6.11,39.4,39.4,0,0,1,18.91,4.36,38.32,38.32,0,0,1,13,11V283.39h24.59V380h-24.59V365.86a36.23,36.23,0,0,1-13,11.24,39.66,39.66,0,0,1-19.09,4.45,41,41,0,0,1-22.23-6.28,43.89,43.89,0,0,1-15.86-17.69q-5.85-11.41-5.84-26.24Q1274.75,316.69,1280.59,305.36Zm66.69,11.07a24.61,24.61,0,0,0-9.42-9.76,25.11,25.11,0,0,0-12.73-3.4,24.71,24.71,0,0,0-12.55,3.31,25,25,0,0,0-9.33,9.68,30.33,30.33,0,0,0-3.57,15.08,31.3,31.3,0,0,0,3.57,15.25,25.65,25.65,0,0,0,9.42,10,23.86,23.86,0,0,0,12.46,3.49,25.21,25.21,0,0,0,12.73-3.4,24.64,24.64,0,0,0,9.42-9.77,35.18,35.18,0,0,0,0-30.51Z"/><path class="cls-1" d="M1491.64,283.39l-59.81,142.27h-26l20.92-48.12-38.71-94.15h27.38l24.93,67.48,25.28-67.48Z"/><path class="cls-2" d="M103.29,101.32A31.22,31.22,0,0,0,96,121.6V360.45a31.34,31.34,0,0,0,4.73,16.73l126-138.63Z"/><path class="cls-3" d="M284.15,175.4,143.48,94.18a31.64,31.64,0,0,0-40.19,7.14L226.75,238.55Z"/><path class="cls-3" d="M284.15,175.4,143.48,94.18a31.64,31.64,0,0,0-40.19,7.14L226.75,238.55Z"/><path class="cls-3" d="M143.48,387.88,286.7,305.19l-59.95-66.64-126,138.63A31.7,31.7,0,0,0,143.48,387.88Z"/><path class="cls-4" d="M143.48,387.88,286.7,305.19l-59.95-66.64-126,138.63A31.7,31.7,0,0,0,143.48,387.88Z"/><path class="cls-3" d="M286.7,305.19l63.63-36.74a31.67,31.67,0,0,0,0-54.85l-66.18-38.2-57.4,63.15Z"/><path class="cls-5" d="M286.7,305.19l63.63-36.74a31.67,31.67,0,0,0,0-54.85l-66.18-38.2-57.4,63.15Z"/><path class="cls-6" d="M286.7,305.19l63.63-36.74a31.67,31.67,0,0,0,0-54.85l-66.18-38.2-57.4,63.15Z"/></g></g></svg>