<svg xmlns="http://www.w3.org/2000/svg" viewBox="0 0 1579.94 512.93"><defs><style>.cls-1{fill:#fff;}</style></defs><title>appstoreAsset 2</title><g id="Layer_2" data-name="Layer 2"><g id="Layer_1-2" data-name="Layer 1"><rect width="1579.94" height="512.93" rx="62.15"/><path class="cls-1" d="M501.11,94.32a35.83,35.83,0,0,1,15.18,14.37,43.22,43.22,0,0,1,5.36,21.84q0,12.48-5.36,21.66a35.4,35.4,0,0,1-15.18,14.07q-9.84,4.89-22.9,4.89H451.48V89.32h26.73Q491.28,89.32,501.11,94.32Zm-.89,58.11q7.65-7.77,7.66-21.9t-7.66-22.26q-7.65-8-22-8H464.9V160.2h13.31Q492.56,160.2,500.22,152.43Z"/><path class="cls-1" d="M546.49,168a30.06,30.06,0,0,1-11.65-11.78,35.46,35.46,0,0,1-4.24-17.6A34.87,34.87,0,0,1,535,121.11a30.15,30.15,0,0,1,11.9-11.78,36.46,36.46,0,0,1,33.67,0,30.13,30.13,0,0,1,11.89,11.78,34.87,34.87,0,0,1,4.36,17.54,34.13,34.13,0,0,1-4.48,17.54A30.94,30.94,0,0,1,580.11,168a35.21,35.21,0,0,1-17,4.17A33.3,33.3,0,0,1,546.49,168Zm26.32-9.95a18.89,18.89,0,0,0,7.36-7.42,23.9,23.9,0,0,0,2.82-12,24.3,24.3,0,0,0-2.71-12,18.26,18.26,0,0,0-7.18-7.36,19.61,19.61,0,0,0-9.65-2.47,19.31,19.31,0,0,0-9.6,2.47,17.61,17.61,0,0,0-7,7.36,25.22,25.22,0,0,0-2.59,12q0,10.48,5.35,16.19a17.7,17.7,0,0,0,13.48,5.71A20.09,20.09,0,0,0,572.81,158.08Z"/><path class="cls-1" d="M697.19,106.27l-20.13,64.88H662.93l-13.07-47.92-13.07,47.92H622.67l-20.25-64.88h13.65l13.54,52.16,13.78-52.16h14l13.19,51.92L684,106.27Z"/><path class="cls-1" d="M753.65,108.39a22.65,22.65,0,0,1,9.48,9.42,31,31,0,0,1,3.41,15.07v38.27h-13.3V134.88q0-8.72-4.36-13.36T737,116.87q-7.54,0-12,4.65t-4.42,13.36v36.27H707.2V106.27h13.42v7.42a22.25,22.25,0,0,1,8.42-6.24,27,27,0,0,1,10.89-2.24A29.13,29.13,0,0,1,753.65,108.39Z"/><path class="cls-1" d="M797,84v87.13H783.61V84Z"/><path class="cls-1" d="M826.23,168a30.09,30.09,0,0,1-11.66-11.78,35.56,35.56,0,0,1-4.23-17.6,34.87,34.87,0,0,1,4.35-17.54,30.13,30.13,0,0,1,11.89-11.78,36.48,36.48,0,0,1,33.68,0,30.19,30.19,0,0,1,11.89,11.78,34.87,34.87,0,0,1,4.35,17.54A34.13,34.13,0,0,1,872,156.19,31,31,0,0,1,859.84,168a35.18,35.18,0,0,1-17,4.17A33.27,33.27,0,0,1,826.23,168Zm26.31-9.95a18.83,18.83,0,0,0,7.36-7.42,23.79,23.79,0,0,0,2.83-12,24.41,24.41,0,0,0-2.71-12,18.32,18.32,0,0,0-7.18-7.36,19.64,19.64,0,0,0-9.66-2.47,19.27,19.27,0,0,0-9.59,2.47,17.64,17.64,0,0,0-7,7.36,25.34,25.34,0,0,0-2.59,12q0,10.48,5.36,16.19a17.68,17.68,0,0,0,13.48,5.71A20.05,20.05,0,0,0,852.54,158.08Z"/><path class="cls-1" d="M889.39,121.11a29.6,29.6,0,0,1,26.55-15.9,28.26,28.26,0,0,1,13.37,3,27.2,27.2,0,0,1,9.12,7.47v-9.42H952v64.88H938.43v-9.66a26.72,26.72,0,0,1-9.3,7.65,30.13,30.13,0,0,1-28.73-1.23,30.55,30.55,0,0,1-11-12,37,37,0,0,1-4.06-17.49A36,36,0,0,1,889.39,121.11ZM935.66,127a19.39,19.39,0,0,0-7.24-7.53,18.9,18.9,0,0,0-9.65-2.59,19,19,0,0,0-16.9,9.95,23.19,23.19,0,0,0-2.76,11.59,24.24,24.24,0,0,0,2.76,11.78,19.63,19.63,0,0,0,7.3,7.71,18.68,18.68,0,0,0,9.6,2.65,18.9,18.9,0,0,0,9.65-2.59,19.25,19.25,0,0,0,7.24-7.6,23.74,23.74,0,0,0,2.77-11.71A23.47,23.47,0,0,0,935.66,127Z"/><path class="cls-1" d="M969.22,121.11a29.6,29.6,0,0,1,26.67-15.9,30.49,30.49,0,0,1,12.53,2.77,25.74,25.74,0,0,1,9.84,7.36V84h13.54v87.13h-13.54v-9.78a25.12,25.12,0,0,1-9.13,7.77,28.3,28.3,0,0,1-13.36,3.06,29,29,0,0,1-15.48-4.29,30.32,30.32,0,0,1-11.07-12,36.93,36.93,0,0,1-4.06-17.49A35.85,35.85,0,0,1,969.22,121.11Zm46.27,5.88a19.53,19.53,0,0,0-7.24-7.53,18.93,18.93,0,0,0-9.66-2.59,19,19,0,0,0-16.89,9.95,23.09,23.09,0,0,0-2.77,11.59,24.13,24.13,0,0,0,2.77,11.78,19.56,19.56,0,0,0,7.3,7.71,18.67,18.67,0,0,0,9.59,2.65,18.93,18.93,0,0,0,9.66-2.59,19.39,19.39,0,0,0,7.24-7.6,23.85,23.85,0,0,0,2.77-11.71A23.58,23.58,0,0,0,1015.49,127Z"/><path class="cls-1" d="M1091.6,168A30.06,30.06,0,0,1,1080,156.25a35.46,35.46,0,0,1-4.24-17.6,34.77,34.77,0,0,1,4.36-17.54A30.06,30.06,0,0,1,1092,109.33a36.46,36.46,0,0,1,33.67,0,30.13,30.13,0,0,1,11.89,11.78,34.87,34.87,0,0,1,4.36,17.54,34.13,34.13,0,0,1-4.48,17.54A30.94,30.94,0,0,1,1125.22,168a35.21,35.21,0,0,1-17,4.17A33.3,33.3,0,0,1,1091.6,168Zm26.32-9.95a18.89,18.89,0,0,0,7.36-7.42,23.9,23.9,0,0,0,2.82-12,24.3,24.3,0,0,0-2.71-12,18.26,18.26,0,0,0-7.18-7.36,19.61,19.61,0,0,0-9.65-2.47,19.31,19.31,0,0,0-9.6,2.47,17.61,17.61,0,0,0-7,7.36,25.22,25.22,0,0,0-2.59,12q0,10.48,5.35,16.19a17.7,17.7,0,0,0,13.48,5.71A20.06,20.06,0,0,0,1117.92,158.08Z"/><path class="cls-1" d="M1201.63,108.39a22.57,22.57,0,0,1,9.47,9.42,30.93,30.93,0,0,1,3.42,15.07v38.27h-13.3V134.88q0-8.72-4.36-13.36T1185,116.87q-7.54,0-12,4.65t-4.42,13.36v36.27h-13.42V106.27h13.42v7.42a22.25,22.25,0,0,1,8.42-6.24,26.9,26.9,0,0,1,10.89-2.24A29.13,29.13,0,0,1,1201.63,108.39Z"/><path class="cls-1" d="M1277.86,117.22v35.91c0,2.44.57,4.18,1.71,5.24s3.08,1.59,5.82,1.59h8.25v11.19H1283q-9.07,0-13.89-4.24t-4.83-13.78V117.22h-7.65v-11h7.65V90.14h13.54v16.13h15.78v11Z"/><path class="cls-1" d="M1352.8,108.39a22.68,22.68,0,0,1,9.18,9.42,31.39,31.39,0,0,1,3.36,15.07v38.27H1352V134.88q0-8.72-4.35-13.36t-11.9-4.65q-7.53,0-12,4.65t-4.41,13.36v36.27H1306V84h13.42v29.79a22.43,22.43,0,0,1,8.65-6.36,29,29,0,0,1,11.48-2.24A27.22,27.22,0,0,1,1352.8,108.39Z"/><path class="cls-1" d="M1441.39,143.71h-49.57a18,18,0,0,0,5.77,12.48,18.24,18.24,0,0,0,12.72,4.71q10.83,0,15.31-9.06h14.48a29.26,29.26,0,0,1-10.66,14.65q-7.71,5.72-19.13,5.71a33.18,33.18,0,0,1-16.66-4.17,29.79,29.79,0,0,1-11.54-11.78,35.87,35.87,0,0,1-4.18-17.6,36.84,36.84,0,0,1,4.06-17.6,28.66,28.66,0,0,1,11.42-11.72,34.09,34.09,0,0,1,16.9-4.12,33,33,0,0,1,16.36,4,28.27,28.27,0,0,1,11.19,11.24,33.85,33.85,0,0,1,4,16.66A42.42,42.42,0,0,1,1441.39,143.71Zm-13.54-10.83a15.26,15.26,0,0,0-5.3-11.89,18.94,18.94,0,0,0-12.83-4.47,17.25,17.25,0,0,0-11.89,4.41,18.45,18.45,0,0,0-5.89,11.95Z"/><path class="cls-1" d="M529.07,359.7H480.6l-8,23.19H447L490.71,261h28.42l43.76,121.87h-25.8Zm-6.63-19.53-17.61-50.91-17.61,50.91Z"/><path class="cls-1" d="M616.68,289.17a39.38,39.38,0,0,1,18.91-4.44,42.24,42.24,0,0,1,22.41,6.1,42.92,42.92,0,0,1,15.86,17.35q5.85,11.24,5.84,26.06t-5.84,26.24A43.91,43.91,0,0,1,658,378.18a41.41,41.41,0,0,1-22.41,6.27,39,39,0,0,1-18.74-4.35,40.26,40.26,0,0,1-13.16-11v59.8H579.28V286.3h24.41v13.94A37.22,37.22,0,0,1,616.68,289.17Zm34.52,30a24.8,24.8,0,0,0-9.42-9.68,25.25,25.25,0,0,0-12.64-3.31,24.4,24.4,0,0,0-12.46,3.4,25.21,25.21,0,0,0-9.42,9.85,34,34,0,0,0,0,30.34,25.21,25.21,0,0,0,9.42,9.85,24.58,24.58,0,0,0,25.1-.09,25.85,25.85,0,0,0,9.42-9.93,31.24,31.24,0,0,0,3.57-15.35A30.33,30.33,0,0,0,651.2,319.16Z"/><path class="cls-1" d="M734.88,289.17a39.42,39.42,0,0,1,18.92-4.44,42.27,42.27,0,0,1,22.41,6.1,42.92,42.92,0,0,1,15.86,17.35q5.83,11.24,5.84,26.06t-5.84,26.24a43.91,43.91,0,0,1-15.86,17.7,41.43,41.43,0,0,1-22.41,6.27,39,39,0,0,1-18.74-4.35,40.16,40.16,0,0,1-13.16-11v59.8H697.49V286.3H721.9v13.94A37.1,37.1,0,0,1,734.88,289.17Zm34.53,30a24.87,24.87,0,0,0-9.42-9.68,25.28,25.28,0,0,0-12.64-3.31,24.47,24.47,0,0,0-12.47,3.4,25.26,25.26,0,0,0-9.41,9.85,34,34,0,0,0,0,30.34,25.26,25.26,0,0,0,9.41,9.85,24.6,24.6,0,0,0,25.11-.09,25.93,25.93,0,0,0,9.42-9.93A31.24,31.24,0,0,0,773,334.24,30.33,30.33,0,0,0,769.41,319.16Z"/><path class="cls-1" d="M876.28,379.75a37.63,37.63,0,0,1-16.13-12.56,33,33,0,0,1-6.1-19.35H880.2q.52,7.5,5.32,11.86t13.16,4.36q8.55,0,13.43-4.1A13.33,13.33,0,0,0,917,349.24a12.46,12.46,0,0,0-3.31-8.9,23.34,23.34,0,0,0-8.28-5.49,140.74,140.74,0,0,0-13.69-4.44,146.58,146.58,0,0,1-19.27-6.89,33.64,33.64,0,0,1-12.72-10.29q-5.33-6.89-5.32-18.39A32.91,32.91,0,0,1,859.8,276,34.35,34.35,0,0,1,875,263.72a55.16,55.16,0,0,1,22.32-4.27q18.83,0,30.6,9.15t13,25.54H914a14,14,0,0,0-5.32-10.37q-5-4.09-13.16-4.1-7.15,0-11.42,3.66T879.85,294a11,11,0,0,0,3.23,8.1,24.47,24.47,0,0,0,8,5.24q4.8,2,13.51,4.62a141.74,141.74,0,0,1,19.35,7,34.86,34.86,0,0,1,12.91,10.46q5.4,7,5.4,18.31a34.44,34.44,0,0,1-5.06,18.13,35.77,35.77,0,0,1-14.81,13.34q-9.78,5-23.19,5A57.9,57.9,0,0,1,876.28,379.75Z"/><path class="cls-1" d="M991.78,306.35v46.72q0,4.89,2.36,7.06c1.57,1.46,4.21,2.18,7.93,2.18h11.33v20.58H998.06q-30.85,0-30.86-30V306.35H955.69V286.3H967.2V262.41h24.58V286.3h21.62v20.05Z"/><path class="cls-1" d="M1048.79,378.27a44.55,44.55,0,0,1-17.52-17.53q-6.36-11.33-6.36-26.15t6.54-26.15a45.33,45.33,0,0,1,17.87-17.52,54.72,54.72,0,0,1,50.56,0,45.39,45.39,0,0,1,17.87,17.52q6.54,11.34,6.54,26.15t-6.71,26.15a46.57,46.57,0,0,1-18.14,17.53,52.76,52.76,0,0,1-25.54,6.18A51,51,0,0,1,1048.79,378.27ZM1086.37,360a23.43,23.43,0,0,0,9.32-9.68q3.49-6.45,3.49-15.69,0-13.77-7.23-21.18a23.81,23.81,0,0,0-17.7-7.41,23.22,23.22,0,0,0-17.52,7.41q-7.07,7.41-7.06,21.18t6.88,21.18a22.65,22.65,0,0,0,17.35,7.41A25.41,25.41,0,0,0,1086.37,360Z"/><path class="cls-1" d="M1178.94,289.26a34.26,34.26,0,0,1,17.35-4.36v25.63h-6.45q-11.5,0-17.35,5.41t-5.84,18.83v48.12h-24.41V286.3h24.41v15A34.44,34.44,0,0,1,1178.94,289.26Z"/><path class="cls-1" d="M1301.77,341.91h-70.61q.87,10.47,7.32,16.39a22.55,22.55,0,0,0,15.87,5.93q13.59,0,19.35-11.68H1300a44,44,0,0,1-16,22.93q-11.87,9-29.12,9a50.44,50.44,0,0,1-25-6.18,43.6,43.6,0,0,1-17.26-17.53q-6.19-11.33-6.19-26.15,0-15,6.1-26.33a42.64,42.64,0,0,1,17.09-17.43q11-6.1,25.28-6.1a50.79,50.79,0,0,1,24.67,5.92,41.83,41.83,0,0,1,16.91,16.83,50.89,50.89,0,0,1,6,25A58.05,58.05,0,0,1,1301.77,341.91Zm-24.58-16.39q-.18-9.4-6.8-15.08a24.13,24.13,0,0,0-16.22-5.66,22.14,22.14,0,0,0-15.25,5.49q-6.2,5.49-7.59,15.25Z"/><path class="cls-1" d="M227.15,180.34S224.13,158.6,242,138c19.63-22.65,40.73-20.64,40.73-20.64s1.1,23.12-11.83,40.18C247.54,188.33,227.15,180.34,227.15,180.34Z"/><path class="cls-1" d="M226.88,197.13c16.39-.66,32.2-14.86,62.19-12.11,24.73,2.27,45,25.13,43.21,27S302,232.9,302.83,266.2c1.08,43.44,37.15,55.59,37.15,55.59s-15.13,53.66-52.83,72.65c-11.12,5.6-42.59-11.19-55-11.28-13.24-.1-40.52,15.92-53.12,11.83-32.55-10.57-61.66-70.19-65.22-118.61-4.12-56.14,29.92-83.88,52.84-88.61C201.29,180.62,207.09,197.92,226.88,197.13Z"/></g></g></svg>