<svg xmlns="http://www.w3.org/2000/svg" viewBox="0 0 1589.94 522.93"><defs><style>.cls-1{fill:#fff;stroke:#000;stroke-miterlimit:10;stroke-width:10px;}.cls-2{fill:#4285f5;}.cls-3{fill:#00ae45;}.cls-4{fill:#eb4132;}.cls-5{fill:#fff200;opacity:0.54;}.cls-6{fill:#fb0;}</style></defs><title>white-appstoreAsset 1_2</title><g id="Layer_2" data-name="Layer 2"><g id="Layer_1-2" data-name="Layer 1"><rect class="cls-1" x="5" y="5" width="1579.94" height="512.93" rx="62.15"/><path d="M515.7,115a21.62,21.62,0,0,0-8.83-9.24,26.6,26.6,0,0,0-13.07-3.12,28.61,28.61,0,0,0-14.48,3.65,25.61,25.61,0,0,0-9.95,10.36,32.47,32.47,0,0,0-3.59,15.54,32.82,32.82,0,0,0,3.59,15.6,25.46,25.46,0,0,0,9.95,10.42,28.51,28.51,0,0,0,14.48,3.65q10.95,0,17.78-6.12t8.36-16.6H489.21V128.38H534.3v10.48A40.41,40.41,0,0,1,493.8,174a42.3,42.3,0,0,1-21.07-5.36A39.9,39.9,0,0,1,457.6,153.7,41.78,41.78,0,0,1,452,132.15a41.75,41.75,0,0,1,5.59-21.54,39.81,39.81,0,0,1,15.19-14.9,44.7,44.7,0,0,1,44.27,1.06A36.57,36.57,0,0,1,531.83,115Z"/><path d="M560.91,102.25v24h28.26v11H560.91v25.08H592.7v11H547.49V91.3H592.7v11Z"/><path d="M662.05,91.41v11H640.26v70.88H626.84V102.36h-21.9v-11Z"/><path d="M719.62,91.41v81.83H706.2V91.41Z"/><path d="M790.14,91.41v11H768.36v70.88H754.94V102.36H733v-11Z"/><path d="M850.6,168.71a39.72,39.72,0,0,1-15.19-15,44.43,44.43,0,0,1,0-43.15,39.81,39.81,0,0,1,15.19-14.9,44.18,44.18,0,0,1,42.15,0,39.44,39.44,0,0,1,15.13,14.9,44.85,44.85,0,0,1,0,43.15,39.36,39.36,0,0,1-15.13,15,44.11,44.11,0,0,1-42.15,0Zm35.49-10A25.66,25.66,0,0,0,896,148.11a34,34,0,0,0,3.59-16A33.58,33.58,0,0,0,896,116.26a25.37,25.37,0,0,0-9.95-10.48,30.55,30.55,0,0,0-29,0,25.43,25.43,0,0,0-10,10.48,33.7,33.7,0,0,0-3.59,15.89,34.1,34.1,0,0,0,3.59,16,25.72,25.72,0,0,0,10,10.59,30.11,30.11,0,0,0,29,0Z"/><path d="M993.82,173.24H980.4L940,112.14v61.1H926.6V91.3H940l40.38,61v-61h13.42Z"/><path d="M544.18,299.9a28.53,28.53,0,0,0-11.51-11.68,35,35,0,0,0-17.08-4,37.4,37.4,0,0,0-19.18,4.88,33.73,33.73,0,0,0-13.08,14,44.73,44.73,0,0,0-4.7,20.92q0,12.21,4.79,21.27a33.88,33.88,0,0,0,13.34,13.95,39.39,39.39,0,0,0,19.87,4.88q13.95,0,22.84-7.41T551.15,336H509.31V317.33h65.91V338.6a57.13,57.13,0,0,1-10.47,23.54,59,59,0,0,1-20.66,17.35A60.71,60.71,0,0,1,515.76,386a64.15,64.15,0,0,1-31.82-7.93A57.74,57.74,0,0,1,461.63,356q-8.11-14.13-8.11-32.08t8.11-32.17a57.54,57.54,0,0,1,22.31-22.14,63.8,63.8,0,0,1,31.65-7.93q20.56,0,35.74,10a51.2,51.2,0,0,1,20.92,28.16Z"/><path d="M611.13,380.36a44.46,44.46,0,0,1-17.52-17.52q-6.37-11.34-6.37-26.15t6.54-26.16A45.53,45.53,0,0,1,611.65,293a54.72,54.72,0,0,1,50.56,0,45.4,45.4,0,0,1,17.87,17.52q6.54,11.34,6.54,26.16t-6.71,26.15a46.45,46.45,0,0,1-18.13,17.52,52.71,52.71,0,0,1-25.54,6.19A50.85,50.85,0,0,1,611.13,380.36Zm37.57-18.31a23.43,23.43,0,0,0,9.33-9.67,32.66,32.66,0,0,0,3.49-15.69q0-13.77-7.24-21.19a23.78,23.78,0,0,0-17.7-7.41,23.23,23.23,0,0,0-17.52,7.41Q612,322.92,612,336.69t6.89,21.18a22.67,22.67,0,0,0,17.35,7.41A25.28,25.28,0,0,0,648.7,362.05Z"/><path d="M722.36,380.36a44.46,44.46,0,0,1-17.52-17.52q-6.36-11.34-6.36-26.15T705,310.53A45.53,45.53,0,0,1,722.88,293a54.74,54.74,0,0,1,50.57,0,45.53,45.53,0,0,1,17.87,17.52q6.54,11.34,6.54,26.16t-6.72,26.15A46.38,46.38,0,0,1,773,380.36a52.68,52.68,0,0,1-25.54,6.19A50.85,50.85,0,0,1,722.36,380.36Zm37.57-18.31a23.31,23.31,0,0,0,9.33-9.67q3.5-6.45,3.49-15.69,0-13.77-7.24-21.19a23.77,23.77,0,0,0-17.69-7.41,23.24,23.24,0,0,0-17.53,7.41q-7,7.42-7.06,21.19t6.89,21.18a22.67,22.67,0,0,0,17.35,7.41A25.28,25.28,0,0,0,759.93,362.05Z"/><path d="M872.65,291.09a35,35,0,0,1,12.9,11.08V288.39h24.58v97.29a51.84,51.84,0,0,1-5.4,24,40.2,40.2,0,0,1-16.22,16.74q-10.8,6.18-26.15,6.19-20.57,0-33.73-9.59t-14.91-26.15H838a18.1,18.1,0,0,0,8.28,10.55,28.93,28.93,0,0,0,15.43,3.92q10.64,0,17.27-6.37t6.62-19.26v-15a37,37,0,0,1-13,11.34,38.78,38.78,0,0,1-18.92,4.53,41.43,41.43,0,0,1-22.31-6.28,43.68,43.68,0,0,1-16-17.69q-5.83-11.41-5.84-26.24a56,56,0,0,1,5.84-26,42.91,42.91,0,0,1,15.87-17.43,42.21,42.21,0,0,1,22.4-6.11A40.67,40.67,0,0,1,872.65,291.09Zm9.41,30.34a24.52,24.52,0,0,0-9.41-9.76,25.14,25.14,0,0,0-12.73-3.4,24.68,24.68,0,0,0-12.55,3.31,24.94,24.94,0,0,0-9.33,9.68,30.33,30.33,0,0,0-3.57,15.08A31.3,31.3,0,0,0,838,351.59a25.7,25.7,0,0,0,9.41,10,23.89,23.89,0,0,0,12.47,3.49,25.24,25.24,0,0,0,12.73-3.4,24.55,24.55,0,0,0,9.41-9.77,35.09,35.09,0,0,0,0-30.51Z"/><path d="M958.43,256V385H934V256Z"/><path d="M1071.58,344H1001q.87,10.46,7.32,16.39a22.59,22.59,0,0,0,15.87,5.93q13.59,0,19.35-11.69h26.33a44,44,0,0,1-16,22.93q-11.86,9-29.12,9a50.34,50.34,0,0,1-25-6.19,43.45,43.45,0,0,1-17.26-17.52q-6.2-11.34-6.19-26.15,0-15,6.1-26.33a42.64,42.64,0,0,1,17.09-17.43q11-6.1,25.28-6.11a50.82,50.82,0,0,1,24.67,5.93,41.71,41.71,0,0,1,16.91,16.83,50.88,50.88,0,0,1,6,25A58.18,58.18,0,0,1,1071.58,344ZM1047,327.62q-.18-9.42-6.8-15.08a24.11,24.11,0,0,0-16.22-5.67,22.1,22.1,0,0,0-15.25,5.5q-6.19,5.49-7.59,15.25Z"/><path d="M1215.68,319.25q-4.62,8.55-14.47,13.78t-24.85,5.23H1156V385h-24.41V263.29h44.81q14.12,0,24.06,4.88a34,34,0,0,1,14.91,13.42,39.38,39.38,0,0,1,.35,37.66Zm-25.37-5.32c3.25-3.07,4.88-7.41,4.88-13q0-17.79-19.88-17.79H1156v35.39h19.35Q1185.42,318.55,1190.31,313.93Z"/><path d="M1262,256V385h-24.4V256Z"/><path d="M1285.59,310.36a42.82,42.82,0,0,1,15.86-17.43,42.25,42.25,0,0,1,22.41-6.11,39.4,39.4,0,0,1,18.91,4.36,38.32,38.32,0,0,1,13,11V288.39h24.59V385h-24.59V370.86a36.23,36.23,0,0,1-13,11.24,39.66,39.66,0,0,1-19.09,4.45,41,41,0,0,1-22.23-6.28,43.89,43.89,0,0,1-15.86-17.69q-5.85-11.41-5.84-26.24Q1279.75,321.69,1285.59,310.36Zm66.69,11.07a24.61,24.61,0,0,0-9.42-9.76,25.11,25.11,0,0,0-12.73-3.4,24.71,24.71,0,0,0-12.55,3.31,25,25,0,0,0-9.33,9.68,30.33,30.33,0,0,0-3.57,15.08,31.3,31.3,0,0,0,3.57,15.25,25.65,25.65,0,0,0,9.42,10,23.86,23.86,0,0,0,12.46,3.49,25.21,25.21,0,0,0,12.73-3.4,24.64,24.64,0,0,0,9.42-9.77,35.18,35.18,0,0,0,0-30.51Z"/><path d="M1496.64,288.39l-59.81,142.27h-26l20.92-48.12-38.71-94.15h27.38l24.93,67.48,25.28-67.48Z"/><path class="cls-2" d="M108.29,106.32A31.22,31.22,0,0,0,101,126.6V365.45a31.34,31.34,0,0,0,4.73,16.73l126-138.63Z"/><path class="cls-3" d="M289.15,180.4,148.48,99.18a31.64,31.64,0,0,0-40.19,7.14L231.75,243.55Z"/><path class="cls-3" d="M289.15,180.4,148.48,99.18a31.64,31.64,0,0,0-40.19,7.14L231.75,243.55Z"/><path class="cls-3" d="M148.48,392.88,291.7,310.19l-59.95-66.64-126,138.63A31.7,31.7,0,0,0,148.48,392.88Z"/><path class="cls-4" d="M148.48,392.88,291.7,310.19l-59.95-66.64-126,138.63A31.7,31.7,0,0,0,148.48,392.88Z"/><path class="cls-3" d="M291.7,310.19l63.63-36.74a31.67,31.67,0,0,0,0-54.85l-66.18-38.2-57.4,63.15Z"/><path class="cls-5" d="M291.7,310.19l63.63-36.74a31.67,31.67,0,0,0,0-54.85l-66.18-38.2-57.4,63.15Z"/><path class="cls-6" d="M291.7,310.19l63.63-36.74a31.67,31.67,0,0,0,0-54.85l-66.18-38.2-57.4,63.15Z"/></g></g></svg>